<?xml version="1.0" encoding="utf-8"?>
<!-- Generator: Adobe Illustrator 21.0.2, SVG Export Plug-In . SVG Version: 6.00 Build 0)  -->
<svg version="1.0" xmlns="http://www.w3.org/2000/svg" xmlns:xlink="http://www.w3.org/1999/xlink" x="0px" y="0px" width="30px"
	 height="30px" viewBox="0 0 30 30" style="enable-background:new 0 0 30 30;" xml:space="preserve">
<g id="Layer_2">
</g>
<g id="Layer_1">
	<g>
		<g>
			<path style="fill:none;stroke:#EF7E2D;stroke-width:2;stroke-miterlimit:10;" d="M10.359,20.735
				c-0.338,0.112-0.717,0.167-1.14,0.167c-0.816,0-1.589-0.21-2.321-0.628c-1.153-0.615-1.939-1.578-2.362-2.892
				c-0.366-1.284-0.225-2.513,0.423-3.687c0.646-1.174,1.617-1.942,2.91-2.305l2.911-0.838c1.912-0.809,3.388-1.598,4.43-2.368
				c1.04-0.768,2.376-2.06,4.008-3.876c0.253-0.251,0.562-0.349,0.927-0.293c0.366,0.083,0.591,0.306,0.676,0.67l1.35,4.777
				l1.561,5.281l1.35,4.777c0.111,0.336,0.042,0.628-0.211,0.88c-0.17,0.196-0.395,0.293-0.676,0.293
				c-0.113,0-0.196-0.012-0.253-0.041c-2.334-0.642-4.183-1.011-5.547-1.11c-1.365-0.098-2.99,0.006-4.874,0.314l-1.35,0.377
				L10.359,20.735z"/>
		</g>
		<path style="fill:none;stroke:#EF7E2D;stroke-width:2;stroke-miterlimit:10;" d="M22.511,9.583
			c1.304-0.378,2.67,0.365,3.051,1.661c0.381,1.295-0.368,2.652-1.672,3.03"/>
		<g>
			
				<line style="fill:none;stroke:#EF7E2D;stroke-width:2;stroke-linecap:round;stroke-miterlimit:10;" x1="9.086" y1="11.578" x2="12.518" y2="23.465"/>
			<path style="fill:none;stroke:#EF7E2D;stroke-width:2;stroke-linecap:round;stroke-miterlimit:10;" d="M16.874,25.864
				c-1.87,0.533-3.821-0.541-4.357-2.399"/>
		</g>
	</g>
</g>
<g id="icons">
</g>
<g id="Back">
</g>
<g id="Mid_layer">
</g>
<g id="top_layer">
</g>
<g id="Highlight">
</g>
<g id="Layer_11">
</g>
</svg>
