<?xml version="1.0" encoding="utf-8"?>
<!-- Generator: Adobe Illustrator 21.0.2, SVG Export Plug-In . SVG Version: 6.00 Build 0)  -->
<svg version="1.0" xmlns="http://www.w3.org/2000/svg" xmlns:xlink="http://www.w3.org/1999/xlink" x="0px" y="0px" width="30px"
	 height="30px" viewBox="0 0 30 30" style="enable-background:new 0 0 30 30;" xml:space="preserve">
<g id="Layer_2">
</g>
<g id="Layer_1">
</g>
<g id="icons">
	<g>
		<path style="fill:#EF7E2D;" d="M13.481,13.699l5.803-4.437c0.214-0.164,0.521-0.123,0.684,0.091
			c0.121,0.158,0.13,0.366,0.041,0.53l-3.49,6.418c-0.54,0.992-1.781,1.359-2.773,0.82c-0.992-0.54-1.359-1.781-0.82-2.773
			C13.067,14.089,13.262,13.868,13.481,13.699z"/>
	</g>
	<g>
		<path style="fill:#EF7E2D;" d="M15,5c5.514,0,10,4.486,10,10s-4.486,10-10,10S5,20.514,5,15S9.486,5,15,5 M15,3
			C8.373,3,3,8.373,3,15s5.373,12,12,12s12-5.373,12-12S21.627,3,15,3L15,3z"/>
	</g>
</g>
<g id="Back">
</g>
<g id="Mid_layer">
</g>
<g id="top_layer">
</g>
<g id="Highlight">
</g>
<g id="Layer_11">
</g>
</svg>
